<svg xmlns="http://www.w3.org/2000/svg" style="display: none;">
  <defs>
    <filter id="glitch">
      <feOffset in="SourceGraphic" dx="-4" dy="0" result="orangeLayer" />
      <feFlood flood-color="#ff9a00" result="orangeColor" />
      <feComposite in="orangeColor" in2="orangeLayer" operator="in" result="orangeFinal" />

      <feOffset in="SourceGraphic" dx="4" dy="0" result="blueLayer" />
      <feFlood flood-color="#00aaff" result="blueColor" />
      <feComposite in="blueColor" in2="blueLayer" operator="in" result="blueFinal" />

      <feMerge>
        <feMergeNode in="orangeFinal" />
        <feMergeNode in="blueFinal" />
        <feMergeNode in="SourceGraphic" />
      </feMerge>
    </filter>
  </defs>

  <symbol id="assign-user" viewBox="0 0 800 800" fill="currentColor">
    <path d="M410.8 459.7c-106.8 0-193.3-86.6-193.3-193.3S304 73.1 410.8 73.1s193.3 86.6 193.3 193.3-86.5 193.3-193.3 193.3zm0-333.3c-77.2 0-140 62.8-140 140s62.8 140 140 140 140-62.8 140-140-62.8-140-140-140zm259.9 444.6h-53.3v-53.3c0-14.7-12-26.7-26.7-26.7s-26.7 12-26.7 26.7v53.3h-53.3c-14.7 0-26.7 12-26.7 26.7s12 26.7 26.7 26.7h53.3v53.3c0 14.7 12 26.7 26.7 26.7s26.7-12 26.7-26.7v-53.3h53.3c14.7 0 26.7-12 26.7-26.7s-11.9-26.7-26.7-26.7zM410.8 513c-134.4 0-252.1 76-311 187.6-4.5 8.4-3.5 18.7 2.6 26.1 6 7.4 15.3 11.4 24.8 10.7 75.3-5.3 151.7-8.1 228.4-8.1h110.4c14.7 0 26.7-12 26.7-26.7s-12-26.7-26.7-26.7H355.6c-67.6 0-135 2.4-201.5 6.9 45.4-82.6 131.7-136.5 229.8-143.1 14.6-1 25.6-13.6 24.6-28.2-1-14.6-13.7-25.6-28.2-24.6-1.5.1-3 .2-4.5.3l15-.1z" />
  </symbol>

  <symbol id="house" viewBox="0 0 24 24" fill="none" stroke="currentColor" stroke-width="2" stroke-linecap="round" stroke-linejoin="round">
    <path d="m3 9 9-7 9 7v11a2 2 0 0 1-2 2H5a2 2 0 0 1-2-2z" />
    <polyline points="9 22 9 12 15 12 15 22" />
  </symbol>

  <symbol id="bell-ring" viewBox="0 0 24 24" fill="none" stroke="currentColor" stroke-width="2" stroke-linecap="round" stroke-linejoin="round">
    <path d="M6 8a6 6 0 0 1 12 0c0 7 3 9 3 9H3s3-2 3-9" />
    <path d="M10.3 21a1.94 1.94 0 0 0 3.4 0" />
    <path d="M4 2C2.8 3.7 2 5.7 2 8" />
    <path d="M22 8c0-2.3-.8-4.3-2-6" />
  </symbol>

  <symbol id="folder" viewBox="0 0 512 512" fill="none" stroke="currentColor" stroke-width="32" stroke-linecap="round" stroke-linejoin="round">
    <path d="M440 432H72a40 40 0 0 1-40-40V120a40 40 0 0 1 40-40h75.89a40 40 0 0 1 29.29 12.69l42.64 46.62a8 8 0 0 0 5.86 2.69H440a40 40 0 0 1 40 40v211.31a40 40 0 0 1-40 40z" />
    <path d="M32 192h448" />
  </symbol>

  <symbol id="user-friends" viewBox="0 0 640 512" fill="currentColor">
    <path d="M192 256c61.9 0 112-50.1 112-112S253.9 32 192 32 80 82.1 80 144s50.1 112 112 112zm76.8 32h-8.3c-20.8 10-43.9 16-68.5 16s-47.6-6-68.5-16h-8.3C51.6 288 0 339.6 0 403.2V432c0 26.5 21.5 48 48 48h288c26.5 0 48-21.5 48-48v-28.8c0-63.6-51.6-115.2-115.2-115.2zM480 256c53 0 96-43 96-96s-43-96-96-96-96 43-96 96 43 96 96 96zm48 32h-3.8c-13.9 4.8-28.6 8-44.2 8s-30.3-3.2-44.2-8H432c-20.4 0-39.2 4.4-56 11.9 26.1 23.9 42.6 57.7 42.6 95.3v33.4c0 14.8-3.3 28.7-9.2 41.4H608c17.7 0 32-14.3 32-32v-26.7c0-51.3-41.5-92.8-92.8-92.8z" />
  </symbol>

  <symbol id="ellipsis" viewBox="0 0 512 512" fill="currentColor">
    <circle cx="256" cy="256" r="64" />
    <circle cx="448" cy="256" r="64" />
    <circle cx="64" cy="256" r="64" />
  </symbol>

  <symbol id="ellipsis-glitch" viewBox="0 0 256 256">
    <path filter="url(#glitch)" fill="currentColor" d="M72 128a28 28 0 1 1-56 0 28 28 0 0 1 56 0zm84 0a28 28 0 1 1-56 0 28 28 0 0 1 56 0zm84 0a28 28 0 1 1-56 0 28 28 0 0 1 56 0z" />
  </symbol>

  <symbol id="pencil" viewBox="0 0 800 800" fill="currentColor">
    <path d="M583.5 106.3c-23.4-23.4-61.4-23.4-84.8 0L121.3 483.7c-4.4 4.4-7.5 9.9-8.9 16l-39.4 167c-3 12.6 8.3 23.9 20.9 20.9l167-39.4c6-1.4 11.6-4.5 16-8.9l377.4-377.4c23.4-23.4 23.4-61.4 0-84.8L583.5 106.3zM514.8 191.1l82.1 82.1L249 621.1l-82.1-82.1L514.8 191.1zm-119.3 408L313.4 517l40.1-40.1 82.1 82.1-40.1 40.1z" />
  </symbol>

  <symbol id="trash" viewBox="0 0 800 800" fill="currentColor">
    <path d="M300 100h200c11 0 20 9 20 20v40h100c22.1 0 40 17.9 40 40v40c0 11-9 20-20 20H160c-11 0-20-9-20-20v-40c0-22.1 17.9-40 40-40h100v-40c0-11 9-20 20-20zM200 300h400l-33.3 366.3C563.3 689.1 544.1 700 523 700H277c-21.1 0-40.3-10.9-43.7-33.7L200 300zM360 380v200c0 11-9 20-20 20s-20-9-20-20V380c0-11 9-20 20-20s20 9 20 20zm120 0v200c0 11-9 20-20 20s-20-9-20-20V380c0-11 9-20 20-20s20 9 20 20z" />
  </symbol>

  <symbol id="ban" viewBox="0 0 800 800" fill="currentColor">
    <path d="M400 80c-176.7 0-320 143.3-320 320s143.3 320 320 320 320-143.3 320-320S576.7 80 400 80zm0 60c63.7 0 122.3 22.4 168.4 59.8L200.2 568.4c-37.4-46.1-59.8-104.7-59.8-168.4 0-143.6 116.4-260 260-260zm168.2 91.8c37.4 46.1 59.8 104.7 59.8 168.2 0 143.6-116.4 260-260 260-63.5 0-122.1-22.4-168.2-59.8L568.2 231.8z" />
  </symbol>

  <symbol id="unban" viewBox="0 0 24 24" fill="none">
    <path fill-rule="evenodd" clip-rule="evenodd" d="M5.63604 18.364C9.15076 21.8787 14.8492 21.8787 18.364 18.364C21.8787 14.4562 21.8787 9.15076 18.364 5.63604C14.8492 2.12132 9.15076 2.12132 5.63604 5.63604C2.12132 9.15076 2.12132 14.8492 5.63604 18.364ZM7.80749 17.6067C10.5493 19.6623 14.4562 19.4433 16.9497 16.9497C19.4433 14.4562 19.6623 10.5493 17.6067 7.80749L14.8284 10.5858C14.4379 10.9763 13.8047 10.9763 13.4142 10.5858C13.0237 10.1953 13.0237 9.5621 13.4142 9.17157L16.1925 6.39327C13.4507 4.33767 9.54384 4.55666 7.05025 7.05025C4.55666 9.54384 4.33767 13.4507 6.39327 16.1925L9.17157 13.4142C9.5621 13.0237 10.1953 13.0237 10.5858 13.4142C10.9763 13.8047 10.9763 14.4379 10.5858 14.8284L7.80749 17.6067Z" fill="currentColor" />
  </symbol>

  <symbol id="work-icon" viewBox="0 0 1212 1024" fill="currentColor">
    <path d="M1092.179592 127.801469h-264.359184V31.95298A32.036571 32.036571 0 0 0 795.95102 0h-381.910204a32.036571 32.036571 0 0 0-31.869387 31.95298v95.848489h-264.359184C52.767347 127.801469 0 180.704653 0 245.916735v657.616979c0 65.201633 52.767347 118.104816 117.812245 118.104817h974.367347c65.044898 0 117.812245-52.892735 117.812245-118.104817V245.916735c0-64.950857-52.767347-118.115265-117.812245-118.115266zM445.64898 63.905959h318.693877v63.89551h-318.693877V63.905959z m-327.836735 127.791021h974.367347c29.779592 0 54.073469 24.36702 54.073469 54.219755V431.333878c-60.342857 14.147918-224.391837 50.813388-382.171428 68.879673v-21.211429a32.036571 32.036571 0 0 0-31.869388-31.952979H477.518367a32.036571 32.036571 0 0 0-31.869387 31.952979v21.211429c-157.518367-18.076735-321.828571-54.470531-382.171429-68.879673V245.916735c0.261224-29.852735 24.555102-54.209306 54.334694-54.209306zM700.604082 510.955102v127.79102H509.64898V510.955102H700.604082z m391.57551 447.049143h-974.367347c-29.779592 0-54.073469-24.356571-54.073469-54.209306V497.057959c71.57551 16.509388 230.138776 50.552163 381.910204 67.573551v106.057143a32.036571 32.036571 0 0 0 31.869387 31.963429h254.693878a32.036571 32.036571 0 0 0 31.869388-31.95298V564.641959c151.771429-16.760163 310.334694-51.074612 382.171428-67.573551v406.465306c0 30.113959-24.293878 54.470531-54.073469 54.470531z" />
  </symbol>

  <symbol id="calendar" viewBox="0 0 128 128" fill="currentColor">
    <path d="M110 24H98v-8c0-4.4-3.6-8-8-8s-8 3.6-8 8v8H46v-8c0-4.4-3.6-8-8-8s-8 3.6-8 8v8H18c-4.4 0-8 3.6-8 8v80c0 4.4 3.6 8 8 8h92c4.4 0 8-3.6 8-8V32c0-4.4-3.6-8-8-8zM26 112V40h76v72H26z" />
    <path d="M34 48h12v12H34zm20 0h12v12H54zm20 0h12v12H74zm20 0h12v12H94zm-60 20h12v12H34zm20 0h12v12H54zm20 0h12v12H74zm20 0h12v12H94zm-60 20h12v12H34zm20 0h12v12H54zm20 0h12v12H74zm20 0h12v12H94z" />
  </symbol>
</svg>