<svg xmlns="http://www.w3.org/2000/svg" style="display: none;">
  <defs>
    <filter id="glitch">
      <feOffset in="SourceGraphic" dx="-4" dy="0" result="orangeLayer" />
      <feFlood flood-color="#ff9a00" result="orangeColor" />
      <feComposite in="orangeColor" in2="orangeLayer" operator="in" result="orangeFinal" />

      <feOffset in="SourceGraphic" dx="4" dy="0" result="blueLayer" />
      <feFlood flood-color="#00aaff" result="blueColor" />
      <feComposite in="blueColor" in2="blueLayer" operator="in" result="blueFinal" />

      <feMerge>
        <feMergeNode in="orangeFinal" />
        <feMergeNode in="blueFinal" />
        <feMergeNode in="SourceGraphic" />
      </feMerge>
    </filter>
  </defs>

  <symbol id="assign-user" viewBox="0 0 800 800" fill="currentColor">
    <path d="M410.8 459.7c-106.8 0-193.3-86.6-193.3-193.3S304 73.1 410.8 73.1s193.3 86.6 193.3 193.3-86.5 193.3-193.3 193.3zm0-333.3c-77.2 0-140 62.8-140 140s62.8 140 140 140 140-62.8 140-140-62.8-140-140-140zm259.9 444.6h-53.3v-53.3c0-14.7-12-26.7-26.7-26.7s-26.7 12-26.7 26.7v53.3h-53.3c-14.7 0-26.7 12-26.7 26.7s12 26.7 26.7 26.7h53.3v53.3c0 14.7 12 26.7 26.7 26.7s26.7-12 26.7-26.7v-53.3h53.3c14.7 0 26.7-12 26.7-26.7s-11.9-26.7-26.7-26.7zM410.8 513c-134.4 0-252.1 76-311 187.6-4.5 8.4-3.5 18.7 2.6 26.1 6 7.4 15.3 11.4 24.8 10.7 75.3-5.3 151.7-8.1 228.4-8.1h110.4c14.7 0 26.7-12 26.7-26.7s-12-26.7-26.7-26.7H355.6c-67.6 0-135 2.4-201.5 6.9 45.4-82.6 131.7-136.5 229.8-143.1 14.6-1 25.6-13.6 24.6-28.2-1-14.6-13.7-25.6-28.2-24.6-1.5.1-3 .2-4.5.3l15-.1z" />
  </symbol>

  <symbol id="house" viewBox="0 0 24 24" fill="none" stroke="currentColor" stroke-width="2" stroke-linecap="round" stroke-linejoin="round">
    <path d="m3 9 9-7 9 7v11a2 2 0 0 1-2 2H5a2 2 0 0 1-2-2z" />
    <polyline points="9 22 9 12 15 12 15 22" />
  </symbol>

  <symbol id="bell-ring" viewBox="0 0 24 24" fill="none" stroke="currentColor" stroke-width="2" stroke-linecap="round" stroke-linejoin="round">
    <path d="M6 8a6 6 0 0 1 12 0c0 7 3 9 3 9H3s3-2 3-9" />
    <path d="M10.3 21a1.94 1.94 0 0 0 3.4 0" />
    <path d="M4 2C2.8 3.7 2 5.7 2 8" />
    <path d="M22 8c0-2.3-.8-4.3-2-6" />
  </symbol>

  <symbol id="folder" viewBox="0 0 512 512" fill="none" stroke="currentColor" stroke-width="32" stroke-linecap="round" stroke-linejoin="round">
    <path d="M440 432H72a40 40 0 0 1-40-40V120a40 40 0 0 1 40-40h75.89a40 40 0 0 1 29.29 12.69l42.64 46.62a8 8 0 0 0 5.86 2.69H440a40 40 0 0 1 40 40v211.31a40 40 0 0 1-40 40z" />
    <path d="M32 192h448" />
  </symbol>

  <symbol id="user-friends" viewBox="0 0 640 512" fill="currentColor">
    <path d="M192 256c61.9 0 112-50.1 112-112S253.9 32 192 32 80 82.1 80 144s50.1 112 112 112zm76.8 32h-8.3c-20.8 10-43.9 16-68.5 16s-47.6-6-68.5-16h-8.3C51.6 288 0 339.6 0 403.2V432c0 26.5 21.5 48 48 48h288c26.5 0 48-21.5 48-48v-28.8c0-63.6-51.6-115.2-115.2-115.2zM480 256c53 0 96-43 96-96s-43-96-96-96-96 43-96 96 43 96 96 96zm48 32h-3.8c-13.9 4.8-28.6 8-44.2 8s-30.3-3.2-44.2-8H432c-20.4 0-39.2 4.4-56 11.9 26.1 23.9 42.6 57.7 42.6 95.3v33.4c0 14.8-3.3 28.7-9.2 41.4H608c17.7 0 32-14.3 32-32v-26.7c0-51.3-41.5-92.8-92.8-92.8z" />
  </symbol>

  <symbol id="ellipsis" viewBox="0 0 512 512" fill="currentColor">
    <circle cx="256" cy="256" r="64" />
    <circle cx="448" cy="256" r="64" />
    <circle cx="64" cy="256" r="64" />
  </symbol>

  <symbol id="ellipsis-glitch" viewBox="0 0 256 256">
    <path filter="url(#glitch)" fill="currentColor" d="M72 128a28 28 0 1 1-56 0 28 28 0 0 1 56 0zm84 0a28 28 0 1 1-56 0 28 28 0 0 1 56 0zm84 0a28 28 0 1 1-56 0 28 28 0 0 1 56 0z" />
  </symbol>

  <symbol id="pencil" viewBox="0 0 800 800" fill="currentColor">
    <path d="M583.5 106.3c-23.4-23.4-61.4-23.4-84.8 0L121.3 483.7c-4.4 4.4-7.5 9.9-8.9 16l-39.4 167c-3 12.6 8.3 23.9 20.9 20.9l167-39.4c6-1.4 11.6-4.5 16-8.9l377.4-377.4c23.4-23.4 23.4-61.4 0-84.8L583.5 106.3zM514.8 191.1l82.1 82.1L249 621.1l-82.1-82.1L514.8 191.1zm-119.3 408L313.4 517l40.1-40.1 82.1 82.1-40.1 40.1z" />
  </symbol>

  <symbol id="trash" viewBox="0 0 800 800" fill="currentColor">
    <path d="M300 100h200c11 0 20 9 20 20v40h100c22.1 0 40 17.9 40 40v40c0 11-9 20-20 20H160c-11 0-20-9-20-20v-40c0-22.1 17.9-40 40-40h100v-40c0-11 9-20 20-20zM200 300h400l-33.3 366.3C563.3 689.1 544.1 700 523 700H277c-21.1 0-40.3-10.9-43.7-33.7L200 300zM360 380v200c0 11-9 20-20 20s-20-9-20-20V380c0-11 9-20 20-20s20 9 20 20zm120 0v200c0 11-9 20-20 20s-20-9-20-20V380c0-11 9-20 20-20s20 9 20 20z" />
  </symbol>

  <symbol id="ban" viewBox="0 0 800 800" fill="currentColor">
    <path d="M400 80c-176.7 0-320 143.3-320 320s143.3 320 320 320 320-143.3 320-320S576.7 80 400 80zm0 60c63.7 0 122.3 22.4 168.4 59.8L200.2 568.4c-37.4-46.1-59.8-104.7-59.8-168.4 0-143.6 116.4-260 260-260zm168.2 91.8c37.4 46.1 59.8 104.7 59.8 168.2 0 143.6-116.4 260-260 260-63.5 0-122.1-22.4-168.2-59.8L568.2 231.8z" />
  </symbol>

  <symbol id="unban" viewBox="0 0 24 24" fill="none">
    <path fill-rule="evenodd" clip-rule="evenodd" d="M5.63604 18.364C9.15076 21.8787 14.8492 21.8787 18.364 18.364C21.8787 14.4562 21.8787 9.15076 18.364 5.63604C14.8492 2.12132 9.15076 2.12132 5.63604 5.63604C2.12132 9.15076 2.12132 14.8492 5.63604 18.364ZM7.80749 17.6067C10.5493 19.6623 14.4562 19.4433 16.9497 16.9497C19.4433 14.4562 19.6623 10.5493 17.6067 7.80749L14.8284 10.5858C14.4379 10.9763 13.8047 10.9763 13.4142 10.5858C13.0237 10.1953 13.0237 9.5621 13.4142 9.17157L16.1925 6.39327C13.4507 4.33767 9.54384 4.55666 7.05025 7.05025C4.55666 9.54384 4.33767 13.4507 6.39327 16.1925L9.17157 13.4142C9.5621 13.0237 10.1953 13.0237 10.5858 13.4142C10.9763 13.8047 10.9763 14.4379 10.5858 14.8284L7.80749 17.6067Z" fill="currentColor" />
  </symbol>

  <symbol id="work-icon" viewBox="0 0 1212 1024" fill="currentColor">
    <path d="M1092.179592 127.801469h-264.359184V31.95298A32.036571 32.036571 0 0 0 795.95102 0h-381.910204a32.036571 32.036571 0 0 0-31.869387 31.95298v95.848489h-264.359184C52.767347 127.801469 0 180.704653 0 245.916735v657.616979c0 65.201633 52.767347 118.104816 117.812245 118.104817h974.367347c65.044898 0 117.812245-52.892735 117.812245-118.104817V245.916735c0-64.950857-52.767347-118.115265-117.812245-118.115266zM445.64898 63.905959h318.693877v63.89551h-318.693877V63.905959z m-327.836735 127.791021h974.367347c29.779592 0 54.073469 24.36702 54.073469 54.219755V431.333878c-60.342857 14.147918-224.391837 50.813388-382.171428 68.879673v-21.211429a32.036571 32.036571 0 0 0-31.869388-31.952979H477.518367a32.036571 32.036571 0 0 0-31.869387 31.952979v21.211429c-157.518367-18.076735-321.828571-54.470531-382.171429-68.879673V245.916735c0.261224-29.852735 24.555102-54.209306 54.334694-54.209306zM700.604082 510.955102v127.79102H509.64898V510.955102H700.604082z m391.57551 447.049143h-974.367347c-29.779592 0-54.073469-24.356571-54.073469-54.209306V497.057959c71.57551 16.509388 230.138776 50.552163 381.910204 67.573551v106.057143a32.036571 32.036571 0 0 0 31.869387 31.963429h254.693878a32.036571 32.036571 0 0 0 31.869388-31.95298V564.641959c151.771429-16.760163 310.334694-51.074612 382.171428-67.573551v406.465306c0 30.113959-24.293878 54.470531-54.073469 54.470531z" />
  </symbol>

  <symbol id="calendar" viewBox="0 0 128 128" fill="currentColor">
    <path d="M110 24H98v-8c0-4.4-3.6-8-8-8s-8 3.6-8 8v8H46v-8c0-4.4-3.6-8-8-8s-8 3.6-8 8v8H18c-4.4 0-8 3.6-8 8v80c0 4.4 3.6 8 8 8h92c4.4 0 8-3.6 8-8V32c0-4.4-3.6-8-8-8zM26 112V40h76v72H26z" />
    <path d="M34 48h12v12H34zm20 0h12v12H54zm20 0h12v12H74zm20 0h12v12H94zm-60 20h12v12H34zm20 0h12v12H54zm20 0h12v12H74zm20 0h12v12H94zm-60 20h12v12H34zm20 0h12v12H54zm20 0h12v12H74zm20 0h12v12H94z" />
  </symbol>

  <symbol id="settings" viewBox="0 0 24 24" fill="none">
    <path fill-rule="evenodd" clip-rule="evenodd" d="M12 8.25C9.92894 8.25 8.25 9.92893 8.25 12C8.25 14.0711 9.92894 15.75 12 15.75C14.0711 15.75 15.75 14.0711 15.75 12C15.75 9.92893 14.0711 8.25 12 8.25ZM9.75 12C9.75 10.7574 10.7574 9.75 12 9.75C13.2426 9.75 14.25 10.7574 14.25 12C14.25 13.2426 13.2426 14.25 12 14.25C10.7574 14.25 9.75 13.2426 9.75 12Z" fill="#1C274C"/>
    <path fill-rule="evenodd" clip-rule="evenodd" d="M11.9747 1.25C11.5303 1.24999 11.1592 1.24999 10.8546 1.27077C10.5375 1.29241 10.238 1.33905 9.94761 1.45933C9.27379 1.73844 8.73843 2.27379 8.45932 2.94762C8.31402 3.29842 8.27467 3.66812 8.25964 4.06996C8.24756 4.39299 8.08454 4.66251 7.84395 4.80141C7.60337 4.94031 7.28845 4.94673 7.00266 4.79568C6.64714 4.60777 6.30729 4.45699 5.93083 4.40743C5.20773 4.31223 4.47642 4.50819 3.89779 4.95219C3.64843 5.14353 3.45827 5.3796 3.28099 5.6434C3.11068 5.89681 2.92517 6.21815 2.70294 6.60307L2.67769 6.64681C2.45545 7.03172 2.26993 7.35304 2.13562 7.62723C1.99581 7.91267 1.88644 8.19539 1.84541 8.50701C1.75021 9.23012 1.94617 9.96142 2.39016 10.5401C2.62128 10.8412 2.92173 11.0602 3.26217 11.2741C3.53595 11.4461 3.68788 11.7221 3.68786 12C3.68785 12.2778 3.53592 12.5538 3.26217 12.7258C2.92169 12.9397 2.62121 13.1587 2.39007 13.4599C1.94607 14.0385 1.75012 14.7698 1.84531 15.4929C1.88634 15.8045 1.99571 16.0873 2.13552 16.3727C2.26983 16.6469 2.45535 16.9682 2.67758 17.3531L2.70284 17.3969C2.92507 17.7818 3.11058 18.1031 3.28089 18.3565C3.45817 18.6203 3.64833 18.8564 3.89769 19.0477C4.47632 19.4917 5.20763 19.6877 5.93073 19.5925C6.30717 19.5429 6.647 19.3922 7.0025 19.2043C7.28833 19.0532 7.60329 19.0596 7.8439 19.1986C8.08452 19.3375 8.24756 19.607 8.25964 19.9301C8.27467 20.3319 8.31403 20.7016 8.45932 21.0524C8.73843 21.7262 9.27379 22.2616 9.94761 22.5407C10.238 22.661 10.5375 22.7076 10.8546 22.7292C11.1592 22.75 11.5303 22.75 11.9747 22.75H12.0252C12.4697 22.75 12.8407 22.75 13.1454 22.7292C13.4625 22.7076 13.762 22.661 14.0524 22.5407C14.7262 22.2616 15.2616 21.7262 15.5407 21.0524C15.686 20.7016 15.7253 20.3319 15.7403 19.93C15.7524 19.607 15.9154 19.3375 16.156 19.1985C16.3966 19.0596 16.7116 19.0532 16.9974 19.2042C17.3529 19.3921 17.6927 19.5429 18.0692 19.5924C18.7923 19.6876 19.5236 19.4917 20.1022 19.0477C20.3516 18.8563 20.5417 18.6203 20.719 18.3565C20.8893 18.1031 21.0748 17.7818 21.297 17.3969L21.3223 17.3531C21.5445 16.9682 21.7301 16.6468 21.8644 16.3726C22.0042 16.0872 22.1135 15.8045 22.1546 15.4929C22.2498 14.7697 22.0538 14.0384 21.6098 13.4598C21.3787 13.1586 21.0782 12.9397 20.7378 12.7258C20.464 12.5538 20.3121 12.2778 20.3121 11.9999C20.3121 11.7221 20.464 11.4462 20.7377 11.2742C21.0783 11.0603 21.3788 10.8414 21.6099 10.5401C22.0539 9.96149 22.2499 9.23019 22.1547 8.50708C22.1136 8.19546 22.0043 7.91274 21.8645 7.6273C21.7302 7.35313 21.5447 7.03183 21.3224 6.64695L21.2972 6.60318C21.0749 6.21825 20.8894 5.89688 20.7191 5.64347C20.5418 5.37967 20.3517 5.1436 20.1023 4.95225C19.5237 4.50826 18.7924 4.3123 18.0692 4.4075C17.6928 4.45706 17.353 4.60782 16.9975 4.79572C16.7117 4.94679 16.3967 4.94036 16.1561 4.80144C15.9155 4.66253 15.7524 4.39297 15.7403 4.06991C15.7253 3.66808 15.686 3.2984 15.5407 2.94762C15.2616 2.27379 14.7262 1.73844 14.0524 1.45933C13.762 1.33905 13.4625 1.29241 13.1454 1.27077C12.8407 1.24999 12.4697 1.24999 12.0252 1.25H11.9747ZM10.5216 2.84515C10.5988 2.81319 10.716 2.78372 10.9567 2.76729C11.2042 2.75041 11.5238 2.75 12 2.75C12.4762 2.75 12.7958 2.75041 13.0432 2.76729C13.284 2.78372 13.4012 2.81319 13.4783 2.84515C13.7846 2.97202 14.028 3.21536 14.1548 3.52165C14.1949 3.61826 14.228 3.76887 14.2414 4.12597C14.271 4.91835 14.68 5.68129 15.4061 6.10048C16.1321 6.51968 16.9974 6.4924 17.6984 6.12188C18.0143 5.9549 18.1614 5.90832 18.265 5.89467C18.5937 5.8514 18.9261 5.94047 19.1891 6.14228C19.2554 6.19312 19.3395 6.27989 19.4741 6.48016C19.6125 6.68603 19.7726 6.9626 20.0107 7.375C20.2488 7.78741 20.4083 8.06438 20.5174 8.28713C20.6235 8.50382 20.6566 8.62007 20.6675 8.70287C20.7108 9.03155 20.6217 9.36397 20.4199 9.62698C20.3562 9.70995 20.2424 9.81399 19.9397 10.0041C19.2684 10.426 18.8122 11.1616 18.8121 11.9999C18.8121 12.8383 19.2683 13.574 19.9397 13.9959C20.2423 14.186 20.3561 14.29 20.4198 14.373C20.6216 14.636 20.7107 14.9684 20.6674 15.2971C20.6565 15.3799 20.6234 15.4961 20.5173 15.7128C20.4082 15.9355 20.2487 16.2125 20.0106 16.6249C19.7725 17.0373 19.6124 17.3139 19.474 17.5198C19.3394 17.72 19.2553 17.8068 19.189 17.8576C18.926 18.0595 18.5936 18.1485 18.2649 18.1053C18.1613 18.0916 18.0142 18.045 17.6983 17.8781C16.9973 17.5075 16.132 17.4803 15.4059 17.8995C14.68 18.3187 14.271 19.0816 14.2414 19.874C14.228 20.2311 14.1949 20.3817 14.1548 20.4784C14.028 20.7846 13.7846 21.028 13.4783 21.1549C13.4012 21.1868 13.284 21.2163 13.0432 21.2327C12.7958 21.2496 12.4762 21.25 12 21.25C11.5238 21.25 11.2042 21.2496 10.9567 21.2327C10.716 21.2163 10.5988 21.1868 10.5216 21.1549C10.2154 21.028 9.97201 20.7846 9.84514 20.4784C9.80512 20.3817 9.77195 20.2311 9.75859 19.874C9.72896 19.0817 9.31997 18.3187 8.5939 17.8995C7.86784 17.4803 7.00262 17.5076 6.30158 17.8781C5.98565 18.0451 5.83863 18.0917 5.73495 18.1053C5.40626 18.1486 5.07385 18.0595 4.81084 17.8577C4.74458 17.8069 4.66045 17.7201 4.52586 17.5198C4.38751 17.314 4.22736 17.0374 3.98926 16.625C3.75115 16.2126 3.59171 15.9356 3.4826 15.7129C3.37646 15.4962 3.34338 15.3799 3.33248 15.2971C3.28921 14.9684 3.37828 14.636 3.5801 14.373C3.64376 14.2901 3.75761 14.186 4.0602 13.9959C4.73158 13.5741 5.18782 12.8384 5.18786 12.0001C5.18791 11.1616 4.73165 10.4259 4.06021 10.004C3.75769 9.81389 3.64385 9.70987 3.58019 9.62691C3.37838 9.3639 3.28931 9.03149 3.33258 8.7028C3.34348 8.62001 3.37656 8.50375 3.4827 8.28707C3.59181 8.06431 3.75125 7.78734 3.98935 7.37493C4.22746 6.96253 4.3876 6.68596 4.52596 6.48009C4.66055 6.27983 4.74468 6.19305 4.81093 6.14222C5.07395 5.9404 5.40636 5.85133 5.73504 5.8946C5.83873 5.90825 5.98576 5.95483 6.30173 6.12184C7.00273 6.49235 7.86791 6.51962 8.59394 6.10045C9.31998 5.68128 9.72896 4.91837 9.75859 4.12602C9.77195 3.76889 9.80512 3.61827 9.84514 3.52165C9.97201 3.21536 10.2154 2.97202 10.5216 2.84515Z" fill="#1C274C"/>
  </symbol>

  <symbol id="invite-colleagues" viewBox="0 0 1024 1024">
    <path d="M824.7 917.9V237c0-1.7-1.3-3-3-3H330.1c-1.7 0-3 1.3-3 3v680.9h497.6z" fill="#808080" />
    <path d="M844.9 938.1h-538V274.4c0-33.4 27.2-60.6 60.6-60.6h416.8c33.4 0 60.6 27.2 60.6 60.6v663.7z m-497.6-40.5h457.2V274.4c0-11.1-9.1-20.2-20.2-20.2H367.5c-11.1 0-20.2 9.1-20.2 20.2v623.2z" fill="#403F3F" />
    <path d="M211.4 861.5H839V363.8H211.4c-1.7 0-3 1.3-3 3v491.6c0 1.7 1.3 3.1 3 3.1z" fill="#FFFFFF" />
    <path d="M859.3 881.7H248.8c-33.4 0-60.6-27.2-60.6-60.6V404.3c0-33.4 27.2-60.6 60.6-60.6h610.5v538zM248.8 384.1c-11.1 0-20.2 9.1-20.2 20.2V821c0 11.1 9.1 20.2 20.2 20.2h570.1V384.1H248.8z" fill="#403F3F" />
    <path d="M688.6 363.8H944c32.9 0 59.8 28 59.8 62.2s-26.9 62.2-59.8 62.2H756.8" fill="#FFFFFF" />
    <path d="M944 508.5H756.8V468H944c21.8 0 39.6-18.8 39.6-42s-17.8-42-39.6-42H688.6v-40.4H944c44.1 0 80 37 80 82.4s-35.9 82.5-80 82.5z" fill="#403F3F" />
    <path d="M752.2 488.2h189.2c33.2 0 60.3 28 60.3 62.2s-27.1 62.2-60.3 62.2H752.2" fill="#FFFFFF" />
    <path d="M941.5 632.9H752.2v-40.4h189.2c22.1 0 40.1-18.8 40.1-42s-18-42-40.1-42H752.2V468h189.2c44.4 0 80.5 37 80.5 82.4s-36.1 82.5-80.4 82.5z" fill="#403F3F" />
    <path d="M775 612.6h164.1c33.8 0 61.5 28 61.5 62.2S972.9 737 939.1 737H775" fill="#FFFFFF" />
    <path d="M939.1 757.3H775v-40.4h164.1c22.8 0 41.3-18.8 41.3-42s-18.5-42-41.3-42H775v-40.4h164.1c45 0 81.7 37 81.7 82.4s-36.7 82.4-81.7 82.4z" fill="#403F3F" />
    <path d="M775 737.1h104.3c32.9 0 59.8 28 59.8 62.2s-26.9 62.2-59.8 62.2H624" fill="#FFFFFF" />
    <path d="M879.3 881.7H624v-40.4h255.3c21.8 0 39.6-18.8 39.6-42s-17.8-42-39.6-42H775v-40.4h104.3c44.1 0 80 37 80 82.4s-35.9 82.4-80 82.4z" fill="#403F3F" />
    <path d="M327.1 976.4V788.2c0-2 1.6-3.6 3.6-3.6H448c2 0 3.6 1.6 3.6 3.6v188.3c0 2-1.6 3.6-3.6 3.6H330.7c-2-0.1-3.6-1.7-3.6-3.7z" fill="#808080" />
    <path d="M403.4 1000.2h-28.2c-37.7 0-68.3-30.7-68.3-68.3v-99.2c0-37.7 30.7-68.3 68.3-68.3h28.2c37.7 0 68.3 30.7 68.3 68.3v99.2c0 37.7-30.7 68.3-68.3 68.3z m-28.2-195.4c-15.4 0-27.9 12.5-27.9 27.9v99.2c0 15.4 12.5 27.9 27.9 27.9h28.2c15.4 0 27.9-12.5 27.9-27.9v-99.2c0-15.4-12.5-27.9-27.9-27.9h-28.2z" fill="#403F3F" />
    <path d="M451.5 312.3v160.8c0 31.5-27.8 57-62.2 57-34.4 0-62.2-25.5-62.2-57V310.8" fill="#808080" />
    <path d="M389.3 550.4c-45.4 0-82.4-34.6-82.4-77.2V310.8h40.4v162.3c0 20.3 18.8 36.8 42 36.8s42-16.5 42-36.8V312.3h40.4v160.8c0 42.6-37 77.3-82.4 77.3z" fill="#403F3F" />
    <path d="M700.3 976.4V806.9c0-2 1.6-3.6 3.6-3.6h117.3c2 0 3.6 1.6 3.6 3.6v169.5c0 2-1.6 3.6-3.6 3.6H703.9c-2 0-3.6-1.6-3.6-3.6z" fill="#808080" />
    <path d="M776.6 1000.2h-28.2c-37.7 0-68.3-30.7-68.3-68.3v-80.4c0-37.7 30.7-68.3 68.3-68.3h28.2c37.7 0 68.3 30.7 68.3 68.3v80.4c0 37.7-30.7 68.3-68.3 68.3z m-28.2-176.7c-15.4 0-27.9 12.5-27.9 27.9v80.4c0 15.4 12.5 27.9 27.9 27.9h28.2c15.4 0 27.9-12.5 27.9-27.9v-80.4c0-15.4-12.5-27.9-27.9-27.9h-28.2z" fill="#403F3F" />
    <path d="M451.5 976.4V731.9c0-2 1.6-3.6 3.6-3.6h117.3c2 0 3.6 1.6 3.6 3.6v244.5c0 2-1.6 3.6-3.6 3.6H455.1c-2 0-3.6-1.6-3.6-3.6z" fill="#808080" />
    <path d="M527.8 1000.2h-28.2c-37.7 0-68.3-30.7-68.3-68.3V776.5c0-37.7 30.7-68.3 68.3-68.3h28.2c37.7 0 68.3 30.7 68.3 68.3v155.4c0 37.7-30.7 68.3-68.3 68.3z m-28.2-251.6c-15.4 0-27.9 12.5-27.9 27.9v155.4c0 15.4 12.5 27.9 27.9 27.9h28.2c15.4 0 27.9-12.5 27.9-27.9V776.5c0-15.4-12.5-27.9-27.9-27.9h-28.2z" fill="#403F3F" />
    <path d="M575.9 976.4V731.9c0-2 1.6-3.6 3.6-3.6h117.3c2 0 3.6 1.6 3.6 3.6v244.5c0 2-1.6 3.6-3.6 3.6H579.5c-2 0-3.6-1.6-3.6-3.6z" fill="#808080" />
    <path d="M652.2 1000.2H624c-37.7 0-68.3-30.7-68.3-68.3V776.5c0-37.7 30.7-68.3 68.3-68.3h28.2c37.7 0 68.3 30.7 68.3 68.3v155.4c0 37.7-30.7 68.3-68.3 68.3zM624 748.6c-15.4 0-27.9 12.5-27.9 27.9v155.4c0 15.4 12.5 27.9 27.9 27.9h28.2c15.4 0 27.9-12.5 27.9-27.9V776.5c0-15.4-12.5-27.9-27.9-27.9H624z" fill="#403F3F" />
    <path d="M208.4 327.9v581.9c0 1.7-1.3 3-3 3H23.2c-1.7 0-3-1.3-3-3V327.9c0-1.7 1.3-3 3-3h182.1c1.7 0 3.1 1.4 3.1 3z" fill="#808080" />
    <path d="M167.9 933H60.6C27.2 933 0 905.8 0 872.4V365.3c0-33.4 27.2-60.6 60.6-60.6h107.3c33.4 0 60.6 27.2 60.6 60.6v507.1c0.1 33.4-27.1 60.6-60.6 60.6zM60.6 345.1c-11.1 0-20.2 9.1-20.2 20.2v507.1c0 11.1 9.1 20.2 20.2 20.2h107.3c11.1 0 20.2-9.1 20.2-20.2V365.3c0-11.1-9.1-20.2-20.2-20.2H60.6z" fill="#403F3F" />
    <path d="M869.7 234H270c-1.7 0-3-1.3-3-3V47c0-1.7 1.3-3 3-3h599.7c1.7 0 3 1.3 3 3v184c0 1.6-1.3 3-3 3z" fill="#FFFFFF" />
    <path d="M832.3 254.2H307.4c-33.4 0-60.6-27.2-60.6-60.6V84.4c0-33.4 27.2-60.6 60.6-60.6h524.9c33.4 0 60.6 27.2 60.6 60.6v109.1c0 33.5-27.1 60.7-60.6 60.7z m-524.9-190c-11.1 0-20.2 9.1-20.2 20.2v109.1c0 11.1 9.1 20.2 20.2 20.2h524.9c11.1 0 20.2-9.1 20.2-20.2V84.4c0-11.1-9.1-20.2-20.2-20.2H307.4z" fill="#403F3F" />
  </symbol>
</svg>