<svg xmlns="http://www.w3.org/2000/svg" style="display: none;">

  <symbol id="house" viewBox="0 0 24 24" fill="none" stroke="currentColor" stroke-width="2" stroke-linecap="round" stroke-linejoin="round">
    <path d="m3 9 9-7 9 7v11a2 2 0 0 1-2 2H5a2 2 0 0 1-2-2z"/><polyline points="9 22 9 12 15 12 15 22"/>
  </symbol>

  <symbol id="bell-ring" viewBox="0 0 24 24" fill="none" stroke="currentColor" stroke-width="2" stroke-linecap="round" stroke-linejoin="round">
    <path d="M6 8a6 6 0 0 1 12 0c0 7 3 9 3 9H3s3-2 3-9"/><path d="M10.3 21a1.94 1.94 0 0 0 3.4 0"/><path d="M4 2C2.8 3.7 2 5.7 2 8"/><path d="M22 8c0-2.3-.8-4.3-2-6"/>
  </symbol>

  <symbol id="folder" viewBox="0 0 512 512" fill="none" stroke="currentColor" stroke-width="32" stroke-linecap="round" stroke-linejoin="round">
    <path d="M440 432H72a40 40 0 0 1-40-40V120a40 40 0 0 1 40-40h75.89a40 40 0 0 1 29.29 12.69l42.64 46.62a8 8 0 0 0 5.86 2.69H440a40 40 0 0 1 40 40v211.31a40 40 0 0 1-40 40z"/><path d="M32 192h448"/>
  </symbol>

  <symbol id="user-friends" viewBox="0 0 640 512" fill="currentColor">
    <path d="M192 256c61.9 0 112-50.1 112-112S253.9 32 192 32 80 82.1 80 144s50.1 112 112 112zm76.8 32h-8.3c-20.8 10-43.9 16-68.5 16s-47.6-6-68.5-16h-8.3C51.6 288 0 339.6 0 403.2V432c0 26.5 21.5 48 48 48h288c26.5 0 48-21.5 48-48v-28.8c0-63.6-51.6-115.2-115.2-115.2zM480 256c53 0 96-43 96-96s-43-96-96-96-96 43-96 96 43 96 96 96zm48 32h-3.8c-13.9 4.8-28.6 8-44.2 8s-30.3-3.2-44.2-8H432c-20.4 0-39.2 4.4-56 11.9 26.1 23.9 42.6 57.7 42.6 95.3v33.4c0 14.8-3.3 28.7-9.2 41.4H608c17.7 0 32-14.3 32-32v-26.7c0-51.3-41.5-92.8-92.8-92.8z"/>
  </symbol>

  <symbol id="ellipsis" viewBox="0 0 512 512" fill="currentColor">
    <circle cx="256" cy="256" r="64"/><circle cx="448" cy="256" r="64"/><circle cx="64" cy="256" r="64"/>
  </symbol>

</svg>
